<?xml version="1.0" encoding="UTF-8" standalone="no"?>
<!DOCTYPE svg PUBLIC "-//W3C//DTD SVG 1.1//EN"
 "http://www.w3.org/Graphics/SVG/1.1/DTD/svg11.dtd">
<!-- Generated by graphviz version 12.2.0 (20241103.1931)
 -->
<!-- Title: G Pages: 1 -->
<svg width="395pt" height="260pt"
 viewBox="0.00 0.00 395.02 260.00" xmlns="http://www.w3.org/2000/svg" xmlns:xlink="http://www.w3.org/1999/xlink">
<g id="graph0" class="graph" transform="scale(1 1) rotate(0) translate(4 256)">
<title>G</title>
<polygon fill="white" stroke="none" points="-4,4 -4,-256 391.02,-256 391.02,4 -4,4"/>
<!-- commit (initial) 2024&#45;11&#45;28 03:19 Gleb -->
<g id="node1" class="node">
<title>commit (initial) 2024&#45;11&#45;28 03:19 Gleb</title>
<ellipse fill="none" stroke="black" cx="160.37" cy="-234" rx="159.85" ry="18"/>
<text text-anchor="middle" x="160.37" y="-228.95" font-family="Times New Roman,serif" font-size="14.00">commit (initial) 2024&#45;11&#45;28 03:19 Gleb</text>
</g>
<!-- commit 2024&#45;11&#45;28 03:19 Gleb -->
<g id="node2" class="node">
<title>commit 2024&#45;11&#45;28 03:19 Gleb</title>
<ellipse fill="none" stroke="black" cx="160.37" cy="-162" rx="129.66" ry="18"/>
<text text-anchor="middle" x="160.37" y="-156.95" font-family="Times New Roman,serif" font-size="14.00">commit 2024&#45;11&#45;28 03:19 Gleb</text>
</g>
<!-- commit (initial) 2024&#45;11&#45;28 03:19 Gleb&#45;&gt;commit 2024&#45;11&#45;28 03:19 Gleb -->
<g id="edge1" class="edge">
<title>commit (initial) 2024&#45;11&#45;28 03:19 Gleb&#45;&gt;commit 2024&#45;11&#45;28 03:19 Gleb</title>
<path fill="none" stroke="black" d="M160.37,-215.7C160.37,-208.41 160.37,-199.73 160.37,-191.54"/>
<polygon fill="black" stroke="black" points="163.87,-191.62 160.37,-181.62 156.87,-191.62 163.87,-191.62"/>
</g>
<!-- merge firbranch 2024&#45;11&#45;28 03:20 Gleb -->
<g id="node3" class="node">
<title>merge firbranch 2024&#45;11&#45;28 03:20 Gleb</title>
<ellipse fill="none" stroke="black" cx="160.37" cy="-18" rx="160.37" ry="18"/>
<text text-anchor="middle" x="160.37" y="-12.95" font-family="Times New Roman,serif" font-size="14.00">merge firbranch 2024&#45;11&#45;28 03:20 Gleb</text>
</g>
<!-- commit 2024&#45;11&#45;28 03:19 Gleb&#45;&gt;merge firbranch 2024&#45;11&#45;28 03:20 Gleb -->
<g id="edge2" class="edge">
<title>commit 2024&#45;11&#45;28 03:19 Gleb&#45;&gt;merge firbranch 2024&#45;11&#45;28 03:20 Gleb</title>
<path fill="none" stroke="black" d="M132.11,-143.97C119.93,-134.96 106.99,-122.7 100.37,-108 93.79,-93.41 93.79,-86.59 100.37,-72 105.39,-60.86 114.04,-51.12 123.23,-43.14"/>
<polygon fill="black" stroke="black" points="125.31,-45.96 130.93,-36.98 120.93,-40.49 125.31,-45.96"/>
</g>
<!-- commit 2024&#45;11&#45;28 03:20 Gleb -->
<g id="node4" class="node">
<title>commit 2024&#45;11&#45;28 03:20 Gleb</title>
<ellipse fill="none" stroke="black" cx="239.37" cy="-90" rx="129.66" ry="18"/>
<text text-anchor="middle" x="239.37" y="-84.95" font-family="Times New Roman,serif" font-size="14.00">commit 2024&#45;11&#45;28 03:20 Gleb</text>
</g>
<!-- commit 2024&#45;11&#45;28 03:19 Gleb&#45;&gt;commit 2024&#45;11&#45;28 03:20 Gleb -->
<g id="edge4" class="edge">
<title>commit 2024&#45;11&#45;28 03:19 Gleb&#45;&gt;commit 2024&#45;11&#45;28 03:20 Gleb</title>
<path fill="none" stroke="black" d="M179.49,-144.05C189.05,-135.58 200.81,-125.17 211.36,-115.82"/>
<polygon fill="black" stroke="black" points="213.57,-118.53 218.74,-109.28 208.93,-113.29 213.57,-118.53"/>
</g>
<!-- commit 2024&#45;11&#45;28 03:20 Gleb&#45;&gt;merge firbranch 2024&#45;11&#45;28 03:20 Gleb -->
<g id="edge3" class="edge">
<title>commit 2024&#45;11&#45;28 03:20 Gleb&#45;&gt;merge firbranch 2024&#45;11&#45;28 03:20 Gleb</title>
<path fill="none" stroke="black" d="M220.24,-72.05C210.68,-63.58 198.93,-53.17 188.37,-43.82"/>
<polygon fill="black" stroke="black" points="190.8,-41.29 181,-37.28 186.16,-46.53 190.8,-41.29"/>
</g>
<!-- commit 2024&#45;11&#45;28 03:20 Gleb&#45;&gt;commit 2024&#45;11&#45;28 03:20 Gleb -->
<g id="edge5" class="edge">
<title>commit 2024&#45;11&#45;28 03:20 Gleb&#45;&gt;commit 2024&#45;11&#45;28 03:20 Gleb</title>
<path fill="none" stroke="black" d="M328.39,-103.48C360.65,-103.81 387.02,-99.32 387.02,-90 387.02,-81.81 366.65,-77.35 339.81,-76.61"/>
<polygon fill="black" stroke="black" points="339.93,-73.11 329.9,-76.53 339.87,-80.11 339.93,-73.11"/>
</g>
</g>
</svg>
